Coordinates
version=1
nRows=10
nColumns=22
inDegrees=yes

Units are S.I. units (second, meters, Newtons, ...)
If the header above contains a line with 'inDegrees', this indicates whether rotational values are in degrees (yes) or radians (no).

endheader
time	pelvis_tilt	pelvis_list	pelvis_rotation	pelvis_tx	pelvis_ty	pelvis_tz	hip_flexion_r	hip_adduction_r	hip_rotation_r	knee_angle_r	ankle_angle_r	subtalar_angle_r	hip_flexion_l	hip_adduction_l	hip_rotation_l	knee_angle_l	ankle_angle_l	subtalar_angle_l	lumbar_extension	lumbar_bending	lumbar_rotation
      6.82000000	    -11.18081048	      0.62342403	     -4.88169351	      0.86990806	      0.97931697	      0.27860794	     21.05065934	     -4.55090340	     -2.03908723	    -49.18659001	     18.10424425	      4.03116002	     23.74141451	      3.56807236	     -7.01574107	    -18.05592835	     13.72340520	     -2.62883826	      1.81399715	     -0.51119285	      4.81843521
      6.83000000	    -11.17803232	      0.57077689	     -4.90403986	      0.87167094	      0.97935300	      0.27806957	     21.25677363	     -4.50490507	     -2.05951691	    -48.63216075	     18.76150396	      3.81822741	     23.65755090	      3.56326874	     -6.98606877	    -18.11022462	     13.83096425	     -2.98047386	      1.74613613	     -0.46944534	      4.78903803
      6.84000000	    -11.18317346	      0.53178752	     -4.95296222	      0.87335402	      0.97938188	      0.27759461	     21.48839287	     -4.45913085	     -2.04252332	    -48.06211115	     19.39219678	      3.71080852	     23.59536353	      3.55730551	     -6.98549976	    -18.18335751	     13.92980743	     -3.06010479	      1.68436124	     -0.44193230	      4.80399605
      6.85000000	    -11.18007060	      0.46954534	     -5.00970493	      0.87501762	      0.97943256	      0.27716195	     21.70457456	     -4.39249337	     -2.05239903	    -47.45795217	     19.93533564	      3.52902291	     23.52739593	      3.52068207	     -6.99991230	    -18.26704090	     14.07956022	     -3.30419540	      1.61448744	     -0.38575838	      4.81349626
      6.86000000	    -11.18073953	      0.42980156	     -5.08230186	      0.87660912	      0.97949345	      0.27677036	     21.93919864	     -4.33461138	     -2.01890129	    -46.84912031	     20.44491546	      3.45775538	     23.46214174	      3.50419176	     -6.99102735	    -18.33988802	     14.17555365	     -3.38529588	      1.54741015	     -0.35396921	      4.85242631
      6.87000000	    -11.17511863	      0.37890487	     -5.16602871	      0.87818496	      0.97957445	      0.27642750	     22.16495774	     -4.26417843	     -1.99693820	    -46.22537275	     20.89180371	      3.41702275	     23.39300222	      3.46761036	     -7.00477389	    -18.42187139	     14.30022094	     -3.48560335	      1.47516454	     -0.30864653	      4.89535798
      6.88000000	    -11.16253884	      0.32424317	     -5.25469652	      0.87974773	      0.97968240	      0.27610672	     22.38160064	     -4.18708186	     -1.97625874	    -45.59294274	     21.27463454	      3.41108935	     23.31637637	      3.42503871	     -7.02386312	    -18.50507447	     14.42287977	     -3.59385024	      1.39877865	     -0.25548202	      4.94512103
      6.89000000	    -11.14269367	      0.26756322	     -5.34841963	      0.88130768	      0.97982068	      0.27582175	     22.58761193	     -4.10584928	     -1.96471255	    -44.95660189	     21.60110291	      3.42994177	     23.22772914	      3.37746676	     -7.04571634	    -18.58226799	     14.53686436	     -3.70760855	      1.31926008	     -0.20052224	      4.99558048
      6.90000000	    -11.11624273	      0.21147368	     -5.43774540	      0.88286499	      0.97998630	      0.27553754	     22.78385067	     -4.02493964	     -1.96236973	    -44.32205576	     21.88365714	      3.44913677	     23.12790631	      3.33355181	     -7.06617939	    -18.65026336	     14.63610988	     -3.81843720	      1.23605029	     -0.14309636	      5.04410535
      6.91000000	    -11.06266880	      0.13741773	     -5.52084469	      0.88445211	      0.98022101	      0.27525677	     22.93868218	     -3.93258689	     -1.99520669	    -43.68061634	     22.09125796	      3.46048621	     22.99090398	      3.27468358	     -7.09949655	    -18.70706544	     14.74432115	     -3.99427511	      1.12605894	     -0.06380213	      5.08215962
